# MagicaVoxel @ Ephtracy

# group
o 

# material
mtllib nube.mtl
usemtl palette

# normals
vn -1 0 0
vn 1 0 0
vn 0 0 1
vn 0 0 -1
vn 0 -1 0
vn 0 1 0

# texcoords
vt 0.962891 0.5

# verts
v -1.8 0 -0.2
v -1.8 0 -1.1
v -1.8 0.9 -0.2
v -1.8 0.9 -1.1
v -1.6 0.4 -1.1
v -1.6 0.4 -1.4
v -1.6 0.9 -0.9
v -1.6 0.9 -1.1
v -1.6 1.2 -0.9
v -1.6 1.2 -1.4
v -1.3 0 0.5
v -1.3 0 -0.2
v -1.3 0.6 0.5
v -1.3 0.6 -0.2
v -0.9 0.6 0.1
v -0.9 0.6 -0.2
v -0.9 0.9 -0.2
v -0.9 0.9 -0.9
v -0.9 1.1 0.1
v -0.9 1.1 -0.9
v -0.6 0 0.8
v -0.6 0 0.5
v -0.6 0.5 0.8
v -0.6 0.5 0.5
v -1.19209e-07 0.3 -1.1
v -1.19209e-07 0.3 -1.3
v -1.19209e-07 0.9 -1.1
v -1.19209e-07 0.9 -1.3
v -0.4 0.4 -1.1
v -0.4 0.4 -1.4
v -0.4 1.1 -0.9
v -0.4 1.1 -1.1
v -0.4 1.2 -0.9
v -0.4 1.2 -1.4
v 0.3 0 0.8
v 0.3 0 0.5
v 0.3 0.5 0.8
v 0.3 0.5 0.5
v 0.4 0 0.5
v 0.4 0 0.1
v 0.4 0.6 0.5
v 0.4 0.6 0.1
v 0.5 0 0.1
v 0.5 0 0
v 0.5 0 -0.8
v 0.5 0 -1.1
v 0.5 0.3 -0.8
v 0.5 0.3 -1.1
v 0.5 0.8 0
v 0.5 0.8 -0.8
v 0.5 0.9 -0.8
v 0.5 0.9 -1.1
v 0.5 1.1 0.1
v 0.5 1.1 -1.1
v 1 0.3 -0.8
v 1 0.3 -1.3
v 1 0.8 -0.8
v 1 0.9 -0.8
v 1 0.9 -1.3
v 1.3 0 0
v 1.3 0 -0.8
v 1.3 0.8 0
v 1.3 0.8 -0.8
v -0.6 0 0.8
v -0.6 0.5 0.8
v 0.3 0 0.8
v 0.3 0.5 0.8
v -1.3 0 0.5
v -1.3 0.6 0.5
v -0.6 0 0.5
v -0.6 0.5 0.5
v 0.3 0 0.5
v 0.3 0.5 0.5
v 0.4 0 0.5
v 0.4 0.6 0.5
v -0.9 0.6 0.1
v -0.9 1.1 0.1
v 0.4 0 0.1
v 0.4 0.6 0.1
v 0.5 0 0.1
v 0.5 1.1 0.1
v 0.5 0 0
v 0.5 0.8 0
v 1.3 0 0
v 1.3 0.8 0
v -1.8 0 -0.2
v -1.8 0.9 -0.2
v -1.3 0 -0.2
v -1.3 0.6 -0.2
v -0.9 0.6 -0.2
v -0.9 0.9 -0.2
v 0.5 0.8 -0.8
v 0.5 0.9 -0.8
v 1 0.8 -0.8
v 1 0.9 -0.8
v -1.6 0.9 -0.9
v -1.6 1.2 -0.9
v -0.9 0.9 -0.9
v -0.9 1.1 -0.9
v -0.4 1.1 -0.9
v -0.4 1.2 -0.9
v 0.5 0 -0.8
v 0.5 0.3 -0.8
v 1 0.3 -0.8
v 1 0.8 -0.8
v 1.3 0 -0.8
v 1.3 0.8 -0.8
v -1.8 0 -1.1
v -1.8 0.9 -1.1
v -1.6 0.4 -1.1
v -1.6 0.9 -1.1
v -0.4 0.4 -1.1
v -0.4 1.1 -1.1
v -1.19209e-07 0.3 -1.1
v -1.19209e-07 0.9 -1.1
v 0.5 0 -1.1
v 0.5 0.3 -1.1
v 0.5 0.9 -1.1
v 0.5 1.1 -1.1
v -1.19209e-07 0.3 -1.3
v -1.19209e-07 0.9 -1.3
v 1 0.3 -1.3
v 1 0.9 -1.3
v -1.6 0.4 -1.4
v -1.6 1.2 -1.4
v -0.4 0.4 -1.4
v -0.4 1.2 -1.4
v -0.6 0 0.8
v 0.3 0 0.8
v -1.3 0 0.5
v -0.6 0 0.5
v 0.3 0 0.5
v 0.4 0 0.5
v 0.4 0 0.1
v 0.5 0 0.1
v 0.5 0 0
v 1.3 0 0
v -1.8 0 -0.2
v -1.3 0 -0.2
v 0.5 0 -0.8
v 1.3 0 -0.8
v -1.8 0 -1.1
v 0.5 0 -1.1
v 0.5 0.3 -0.8
v 1 0.3 -0.8
v -1.19209e-07 0.3 -1.1
v 0.5 0.3 -1.1
v -1.19209e-07 0.3 -1.3
v 1 0.3 -1.3
v -1.6 0.4 -1.1
v -0.4 0.4 -1.1
v -1.6 0.4 -1.4
v -0.4 0.4 -1.4
v -0.6 0.5 0.8
v 0.3 0.5 0.8
v -0.6 0.5 0.5
v 0.3 0.5 0.5
v -1.3 0.6 0.5
v 0.4 0.6 0.5
v -0.9 0.6 0.1
v 0.4 0.6 0.1
v -1.3 0.6 -0.2
v -0.9 0.6 -0.2
v 0.5 0.8 0
v 1.3 0.8 0
v 0.5 0.8 -0.8
v 1 0.8 -0.8
v 1.3 0.8 -0.8
v -1.8 0.9 -0.2
v -0.9 0.9 -0.2
v 0.5 0.9 -0.8
v 1 0.9 -0.8
v -1.6 0.9 -0.9
v -0.9 0.9 -0.9
v -1.8 0.9 -1.1
v -1.6 0.9 -1.1
v -1.19209e-07 0.9 -1.1
v 0.5 0.9 -1.1
v -1.19209e-07 0.9 -1.3
v 1 0.9 -1.3
v -0.9 1.1 0.1
v 0.5 1.1 0.1
v -0.9 1.1 -0.9
v -0.4 1.1 -0.9
v -0.4 1.1 -1.1
v 0.5 1.1 -1.1
v -1.6 1.2 -0.9
v -0.4 1.2 -0.9
v -1.6 1.2 -1.4
v -0.4 1.2 -1.4

# faces
f 3/1/1 2/1/1 1/1/1
f 4/1/1 2/1/1 3/1/1
f 8/1/1 6/1/1 5/1/1
f 9/1/1 8/1/1 7/1/1
f 10/1/1 6/1/1 8/1/1
f 10/1/1 8/1/1 9/1/1
f 13/1/1 12/1/1 11/1/1
f 14/1/1 12/1/1 13/1/1
f 17/1/1 16/1/1 15/1/1
f 19/1/1 17/1/1 15/1/1
f 19/1/1 18/1/1 17/1/1
f 20/1/1 18/1/1 19/1/1
f 23/1/1 22/1/1 21/1/1
f 24/1/1 22/1/1 23/1/1
f 27/1/1 26/1/1 25/1/1
f 28/1/1 26/1/1 27/1/1
f 29/1/2 30/1/2 32/1/2
f 31/1/2 32/1/2 33/1/2
f 32/1/2 30/1/2 34/1/2
f 33/1/2 32/1/2 34/1/2
f 35/1/2 36/1/2 37/1/2
f 37/1/2 36/1/2 38/1/2
f 39/1/2 40/1/2 41/1/2
f 41/1/2 40/1/2 42/1/2
f 45/1/2 46/1/2 47/1/2
f 47/1/2 46/1/2 48/1/2
f 43/1/2 44/1/2 49/1/2
f 49/1/2 50/1/2 51/1/2
f 43/1/2 49/1/2 53/1/2
f 51/1/2 52/1/2 53/1/2
f 49/1/2 51/1/2 53/1/2
f 53/1/2 52/1/2 54/1/2
f 55/1/2 56/1/2 57/1/2
f 57/1/2 56/1/2 58/1/2
f 58/1/2 56/1/2 59/1/2
f 60/1/2 61/1/2 62/1/2
f 62/1/2 61/1/2 63/1/2
f 66/1/3 65/1/3 64/1/3
f 67/1/3 65/1/3 66/1/3
f 70/1/3 69/1/3 68/1/3
f 71/1/3 69/1/3 70/1/3
f 73/1/3 69/1/3 71/1/3
f 74/1/3 73/1/3 72/1/3
f 75/1/3 69/1/3 73/1/3
f 75/1/3 73/1/3 74/1/3
f 79/1/3 77/1/3 76/1/3
f 80/1/3 79/1/3 78/1/3
f 81/1/3 77/1/3 79/1/3
f 81/1/3 79/1/3 80/1/3
f 84/1/3 83/1/3 82/1/3
f 85/1/3 83/1/3 84/1/3
f 88/1/3 87/1/3 86/1/3
f 89/1/3 87/1/3 88/1/3
f 90/1/3 87/1/3 89/1/3
f 91/1/3 87/1/3 90/1/3
f 94/1/3 93/1/3 92/1/3
f 95/1/3 93/1/3 94/1/3
f 98/1/3 97/1/3 96/1/3
f 99/1/3 97/1/3 98/1/3
f 100/1/3 97/1/3 99/1/3
f 101/1/3 97/1/3 100/1/3
f 102/1/4 103/1/4 104/1/4
f 102/1/4 104/1/4 106/1/4
f 104/1/4 105/1/4 106/1/4
f 106/1/4 105/1/4 107/1/4
f 108/1/4 109/1/4 110/1/4
f 110/1/4 109/1/4 111/1/4
f 108/1/4 110/1/4 112/1/4
f 108/1/4 112/1/4 114/1/4
f 112/1/4 113/1/4 114/1/4
f 114/1/4 113/1/4 115/1/4
f 108/1/4 114/1/4 116/1/4
f 116/1/4 114/1/4 117/1/4
f 115/1/4 113/1/4 118/1/4
f 118/1/4 113/1/4 119/1/4
f 120/1/4 121/1/4 122/1/4
f 122/1/4 121/1/4 123/1/4
f 124/1/4 125/1/4 126/1/4
f 126/1/4 125/1/4 127/1/4
f 131/1/5 129/1/5 128/1/5
f 132/1/5 129/1/5 131/1/5
f 134/1/5 131/1/5 130/1/5
f 134/1/5 133/1/5 132/1/5
f 134/1/5 132/1/5 131/1/5
f 136/1/5 135/1/5 134/1/5
f 139/1/5 134/1/5 130/1/5
f 139/1/5 137/1/5 136/1/5
f 139/1/5 136/1/5 134/1/5
f 140/1/5 137/1/5 139/1/5
f 140/1/5 139/1/5 138/1/5
f 141/1/5 137/1/5 140/1/5
f 142/1/5 140/1/5 138/1/5
f 143/1/5 140/1/5 142/1/5
f 147/1/5 145/1/5 144/1/5
f 148/1/5 147/1/5 146/1/5
f 149/1/5 145/1/5 147/1/5
f 149/1/5 147/1/5 148/1/5
f 152/1/5 151/1/5 150/1/5
f 153/1/5 151/1/5 152/1/5
f 154/1/6 155/1/6 156/1/6
f 156/1/6 155/1/6 157/1/6
f 158/1/6 159/1/6 160/1/6
f 160/1/6 159/1/6 161/1/6
f 158/1/6 160/1/6 162/1/6
f 162/1/6 160/1/6 163/1/6
f 164/1/6 165/1/6 166/1/6
f 166/1/6 165/1/6 167/1/6
f 167/1/6 165/1/6 168/1/6
f 169/1/6 170/1/6 173/1/6
f 173/1/6 170/1/6 174/1/6
f 169/1/6 173/1/6 175/1/6
f 175/1/6 173/1/6 176/1/6
f 171/1/6 172/1/6 178/1/6
f 177/1/6 178/1/6 179/1/6
f 178/1/6 172/1/6 180/1/6
f 179/1/6 178/1/6 180/1/6
f 181/1/6 182/1/6 183/1/6
f 183/1/6 182/1/6 184/1/6
f 184/1/6 182/1/6 185/1/6
f 185/1/6 182/1/6 186/1/6
f 187/1/6 188/1/6 189/1/6
f 189/1/6 188/1/6 190/1/6
